<svg width="20" height="28" viewBox="0 0 20 28" fill="none" xmlns="http://www.w3.org/2000/svg">
<path d="M19.5 9.413V27.5H0.5V9.413C0.5 7.11044 2.16429 5.14598 4.43526 4.76718L4.43542 4.76716C5.60861 4.57108 6.69251 4.01457 7.53349 3.17262C7.53352 3.17259 7.53354 3.17256 7.53357 3.17254C7.53364 3.17247 7.53371 3.17239 7.53378 3.17232L9.99994 0.707044L12.4654 3.17255C13.3072 4.01433 14.3901 4.57102 15.5636 4.76716L15.5638 4.76719C17.8357 5.146 19.5 7.11143 19.5 9.413Z" stroke="#FDBD3B"/>
<path d="M16 28V9.41296C16 8.81896 15.574 8.31696 14.988 8.21996C13.088 7.90296 11.363 7.01696 10 5.65796C8.637 7.01696 6.912 7.90296 5.013 8.21996C4.426 8.31696 4 8.81896 4 9.41296V28H16Z" fill="#FDBD3B"/>
</svg>
